<?xml version="1.0" encoding="UTF-8" standalone="no"?><svg xmlns="http://www.w3.org/2000/svg" version="1.1" width="19.143557cm" height="4.0151358cm" viewBox="0 0 191.43557 40.151356" id="ske-logo-svg"><g id="ske_logo-layer" transform="translate(65.902575,-191.055)"><g id="ske_logo-wrapper" style="fill:#b7b125;fill-opacity:1"><g id="ske_logo-favicon" style="font-style:normal;font-weight:normal;font-size:3.3882823px;line-height:1.25;font-family:sans-serif;letter-spacing:0px;word-spacing:0px;fill:#54c166;fill-opacity:1;stroke:none;stroke-width:0.08470706" transform="matrix(9.8408705,0.22272606,-0.18682395,10.038629,-61.80101,193.44586)" aria-label="S"><path id="ske_logo-letter0" style="stroke-width:0.12769528;fill:#54c166;fill-opacity:1" d="m 0.86821601,1.9629435 c 0,0 -0.85508374,1.2260389 0.31296209,1.0980103 C 2.5160308,2.9146415 3.2070498,2.5214518 3.6825704,2.2710731 3.5246074,2.6250322 2.1042465,3.5360494 1.0370624,3.6967966 0.42555408,3.8160179 -0.17181047,3.776316 -0.31103082,3.3427897 -0.49400579,2.7730134 0.86821601,1.9629435 0.86821601,1.9629435 L -0.37697833,2.0969991 1.460367,1.450365 0.89697956,2.6763523 c 0,0 0.46102774,-0.1408145 0.99552244,-0.3298345 C 2.6148593,2.0910616 2.8367535,1.8640899 2.5734388,1.7723671 1.9791851,1.5653644 1.7132084,1.5097935 1.2819758,1.3801716 0.96997537,1.2863892 0.76645062,1.2346379 0.3443714,1.1012376 0.01810699,0.99812002 -0.48303387,0.89270354 -0.36775663,0.55061568 -0.27540931,0.2765552 0.26404606,0.06278687 0.69057353,-0.05010736 1.5952089,-0.28954857 3.3320458,-0.36951459 3.5820294,-0.13545039 3.7998008,0.06845122 3.4695687,0.22115782 2.665266,0.33423657 2.1103216,0.41225763 0.85543522,0.48798071 0.85543522,0.48798071 c 0,0 0.88257148,-0.14427789 1.27289978,-0.20662561 0.2906607,-0.0464278 1.338103,-0.35298498 0.5297616,-0.35672887 -0.2048433,-9.4658e-4 -0.7259148,0.0656942 -0.9988638,0.112692 C 1.4563028,0.07225938 0.94766688,0.18422925 0.73293734,0.34406377 0.57313111,0.46301516 0.88539311,0.5599759 1.3637511,0.69328326 L 2.3736249,0.96324434 C 3.2629969,1.2009926 3.588984,1.2250191 3.6695072,1.5829468 3.7408744,1.9002103 3.2511203,2.2264292 2.8208892,2.3673466 1.9931224,2.638473 1.4645697,2.6251956 0.89697956,2.6763523 Z" /></g><g transform="matrix(1,0,0,1.0637195,0,-37.810637)" id="text3770" style="font-style:normal;font-variant:normal;font-weight:normal;font-stretch:normal;font-size:25.39999962px;line-height:1.25;font-family:Arial;letter-spacing:0px;word-spacing:0px;fill:#b7b125;fill-opacity:1;stroke:none;stroke-width:0.26458332" aria-label="ikessem"><path id="ske_logo-letter1" style="font-style:normal;font-variant:normal;font-weight:normal;font-stretch:normal;font-family:Arial;stroke-width:0.410411;fill:#b7b125;fill-opacity:1" d="m -20.077233,243.63767 v -28.20292 h 3.732176 v 28.20292 z"/><path id="ske_logo-letter2" style="font-style:normal;font-variant:normal;font-weight:normal;font-stretch:normal;font-family:Arial;stroke-width:0.410411;fill:#b7b125;fill-opacity:1" d="m -9.9387983,243.63767 v -28.20292 h 3.7321739 v 13.98603 L 7.7986445,215.43475 H 12.858243 L 1.0268661,226.86212 13.377669,243.63767 H 8.4527369 l -10.0422382,-14.27461 -4.6171231,4.5017 v 9.77291 z"/><path id="ske_logo-letter3" style="font-style:normal;font-variant:normal;font-weight:normal;font-stretch:normal;font-family:Arial;stroke-width:0.410411;fill:#b7b125;fill-opacity:1" d="m 16.609657,243.63767 v -28.20292 h 20.392299 v 3.32816 H 20.341833 v 8.63787 h 15.602032 v 3.30895 H 20.341833 v 9.59977 h 17.314215 v 3.32817 z"/><path id="ske_logo-letter45" transform="matrix(0.26458333,0,0,0.24873412,-10.22563,255.62272)" d="m 245.21094,-162.11914 c -9.25001,0 -17.65625,1.66218 -25.21875,4.98633 -7.5625,3.32411 -13.3125,8.21138 -17.25,14.66015 -3.9375,6.38228 -5.90625,13.26298 -5.90625,20.64258 0,6.71468 1.59375,12.79844 4.78125,18.25 3.24999,5.385071 8.15625,9.905947 14.71875,13.562502 5.0625,2.858715 13.90625,5.916173 26.53125,9.173828 9.29461,2.349353 16.12373,4.239004 20.57422,5.6875 0.95609,1.548301 1.43359,3.326077 1.43359,5.332031 0,2.260406 -0.65625,4.355201 -1.96875,6.283203 -1.28125,1.894741 -3.25,3.389361 -5.90625,4.486328 -2.65625,1.096943 -5.71875,1.646485 -9.1875,1.646485 -3.90625,0 -7.42187,-0.71516 -10.54688,-2.144531 -3.12498,-1.462633 -5.4375,-3.356745 -6.9375,-5.683594 -1.46874,-2.360164 -2.40625,-5.368849 -2.8125,-9.025391 l -8.57812,0.796875 c 0.125,4.886396 1.375,9.274823 3.75,13.164063 2.40625,3.855978 5.70314,6.747779 9.89062,8.675781 4.21875,1.927976 9.4375,2.892578 15.65626,2.892578 4.90624,0 9.3125,-0.947056 13.21874,-2.841797 3.9375,-1.928002 6.95313,-4.605453 9.04688,-8.029297 2.08387,-3.44077 3.12884,-7.095979 3.13867,-10.964843 2.57444,1.635526 4.60988,3.458248 6.07227,5.480468 2.5,3.390609 3.75,7.37953 3.75,11.966797 0,4.520852 -1.31251,8.710402 -3.9375,12.566406 -2.56251,3.78947 -6.5,6.780661 -11.8125,8.97461 -5.3125,2.193909 -11.43751,3.291016 -18.375,3.291016 l 0.004,0.06641 H -37.142578 v 17.142578 H 250.17188 l 0.008,0.142578 c 1.47702,0 2.92376,-0.05672 4.35547,-0.142578 h 1.89257 v -0.142578 c 7.33933,-0.644658 14.07515,-2.432683 20.18946,-5.398438 7.875,-3.856045 13.90625,-9.208967 18.09375,-16.05664 4.1875,-6.91409 6.28125,-14.260596 6.28125,-22.039063 0,-7.844923 -1.90625,-14.75873 -5.71875,-20.742187 -3.8125,-6.049874 -9.71876,-11.036523 -17.71875,-14.958985 -5.50001,-2.659265 -15.65625,-5.749876 -30.46875,-9.273437 -6.79544,-1.653968 -12.34044,-3.284848 -16.74805,-4.896488 -0.002,-0.081 -0.01,-0.15835 -0.01,-0.24023 1e-5,-3.02496 1.25002,-5.60108 3.75,-7.72852 2.53126,-2.16067 6.54688,-3.24023 12.04688,-3.24024 5.28125,0 9.26563,1.18088 11.95312,3.54102 2.71876,2.36011 4.31251,5.85016 4.78126,10.4707 l 8.71874,-0.69922 c -0.15624,-4.28811 -1.28125,-8.12696 -3.375,-11.51757 -2.09373,-3.39061 -5.09374,-5.95115 -9,-7.67969 -3.87498,-1.76177 -8.35937,-2.64258 -13.45312,-2.64258 -4.625,0 -8.82812,0.83207 -12.60938,2.49414 -3.78123,1.66204 -6.65624,4.10567 -8.625,7.33008 -1.19614,1.93887 -2.02278,3.97083 -2.49218,6.09375 -0.93247,-0.58798 -1.71162,-1.17376 -2.3125,-1.75586 -3.5625,-3.39061 -5.34375,-7.71273 -5.34375,-12.96484 0,-6.04992 2.5,-11.20217 7.5,-15.45703 5.0625,-4.32137 13.09374,-6.48243 24.09375,-6.48243 h 267.14258 v -16.42773 h -257.9629 c -3.17359,-0.40498 -6.47592,-0.625 -9.92968,-0.625 z" style="font-style:normal;font-variant:normal;font-weight:normal;font-stretch:normal;font-family:Arial;stroke-width:2.06273532;fill:#b7b125;fill-opacity:1"/><path id="ske_logo-letter6" style="font-style:normal;font-variant:normal;font-weight:normal;font-stretch:normal;font-family:Arial;stroke-width:0.410411;fill:#b7b125;fill-opacity:1" d="m 72.808176,252.73427 v -28.20292 h 20.392183 v 3.32816 H 76.540335 v 8.63787 h 15.60194 v 3.30895 h -15.60194 v 9.59977 h 17.314111 v 3.32817 z"/><path id="ske_logo-letter7" style="font-style:normal;font-variant:normal;font-weight:normal;font-stretch:normal;font-family:Arial;stroke-width:0.410411;fill:#b7b125;fill-opacity:1" d="m 98.59307,252.73427 v -28.20292 h 5.61749 l 6.67559,19.96905 q 0.92342,2.78952 1.34667,4.17466 0.48094,-1.53905 1.50056,-4.52094 l 6.75254,-19.62277 h 5.02112 v 28.20292 h -3.59751 v -23.60504 l -8.19538,23.60504 h -3.36666 l -8.15693,-24.00904 v 24.00904 z"/></g></g></g></svg>
